<?xml version="1.0" encoding="iso-8859-1"?>
<!-- Generator: Adobe Illustrator 19.0.0, SVG Export Plug-In . SVG Version: 6.00 Build 0)  -->
<svg version="1.1" id="Capa_1" xmlns="http://www.w3.org/2000/svg" xmlns:xlink="http://www.w3.org/1999/xlink" x="0px" y="0px"
	 viewBox="0 0 512.002 512.002" style="enable-background:new 0 0 512.002 512.002;" xml:space="preserve">
<circle style="fill:#FFD33F;" cx="255.982" cy="256.001" r="255.982"/>
<path style="fill:#FFAC3E;" d="M255.982,0.036C155.584,0.054,64.463,58.753,22.95,150.166
	C91.439,26.491,247.217-18.253,370.901,50.235c116.604,64.569,164.146,207.814,109.287,329.29
	c68.215-123.834,23.118-279.515-100.707-347.721C341.648,10.964,299.164,0.036,255.982,0.036z"/>
<path style="fill:#874D1B;" d="M499.174,0.036c-3.134,0-6.152,1.156-8.5,3.231L298.352,165.983l51.196,51.196L509.061,21.221
	c1.88-2.286,2.904-5.146,2.904-8.103v-0.291C511.965,5.765,506.236,0.036,499.174,0.036L499.174,0.036z"/>
<path style="fill:#FFFFFF;" d="M273.636,197.001c17.045,6.814,30.992,19.649,39.192,36.067l0,0
	c3.398,6.841,5.358,14.309,5.746,21.935l30.894-37.894l-51.196-51.196l-34.081,28.829
	C267.431,195.042,270.609,195.801,273.636,197.001z"/>
<g>
	<path style="fill:#383856;" d="M273.636,197.001L273.636,197.001c17.045,6.814,30.992,19.649,39.192,36.067l0,0
		c8.571,17.116,7.794,37.435-2.066,53.845l0,0c-6.859,11.431-17.804,19.825-30.621,23.489l0,0
		c-27.54,7.865-56.484,9.498-84.739,4.793l-10.036-1.686l3.204-3.213c9.568-9.568,17.53-20.611,23.586-32.713l0,0
		c5.605-11.201,8.518-23.559,8.518-36.085l0,0c0-15.791,7.432-30.665,20.073-40.136l0,0
		C250.201,194.274,262.664,192.623,273.636,197.001z"/>
	<circle style="fill:#383856;" cx="132.405" cy="132.423" r="44.135"/>
</g>
<circle style="fill:#FFFFFF;" cx="79.443" cy="256.001" r="44.135"/>
<circle style="fill:#91CECE;" cx="132.405" cy="379.579" r="44.135"/>
<g>
	<circle style="fill:#EA3836;" cx="255.982" cy="432.54" r="44.135"/>
	<circle style="fill:#EA3836;" cx="255.982" cy="79.461" r="44.135"/>
</g>
<circle style="fill:#874D1B;" cx="379.56" cy="379.579" r="44.135"/>
<path style="fill:#202033;" d="M158.78,97.239c14.67,19.34,10.884,46.907-8.447,61.577c-15.703,11.916-37.426,11.916-53.13,0
	c14.503,19.508,42.069,23.568,61.577,9.074s23.568-42.069,9.074-61.577C165.285,102.862,162.231,99.808,158.78,97.239z"/>
<path style="fill:#DDDDDD;" d="M105.818,220.817c14.67,19.34,10.884,46.907-8.447,61.577c-15.703,11.916-37.426,11.916-53.13,0
	c14.503,19.508,42.069,23.568,61.577,9.074c19.508-14.494,23.568-42.069,9.074-61.577
	C112.323,226.439,109.269,223.385,105.818,220.817z"/>
<path style="fill:#83B2B7;" d="M158.78,344.394c14.67,19.34,10.884,46.907-8.447,61.577c-15.703,11.916-37.426,11.916-53.13,0
	c14.503,19.508,42.069,23.568,61.577,9.074c19.508-14.503,23.568-42.069,9.074-61.577
	C165.285,350.017,162.231,346.963,158.78,344.394z"/>
<g>
	<path style="fill:#D62121;" d="M282.357,397.356c14.67,19.34,10.884,46.907-8.447,61.577c-15.703,11.916-37.426,11.916-53.13,0
		c14.503,19.508,42.069,23.568,61.577,9.074c19.508-14.503,23.568-42.069,9.074-61.577
		C288.863,402.979,285.809,399.925,282.357,397.356z"/>
	<path style="fill:#D62121;" d="M282.357,44.277c14.67,19.34,10.884,46.907-8.447,61.577c-15.703,11.916-37.426,11.916-53.13,0
		c14.503,19.508,42.069,23.568,61.577,9.074s23.568-42.069,9.074-61.577C288.863,49.9,285.809,46.846,282.357,44.277z"/>
</g>
<path style="fill:#6B3713;" d="M405.935,344.394c14.67,19.34,10.884,46.907-8.447,61.577c-15.703,11.916-37.426,11.916-53.13,0
	c14.503,19.508,42.069,23.568,61.577,9.074c19.508-14.494,23.568-42.069,9.074-61.577
	C412.44,350.017,409.386,346.963,405.935,344.394z"/>
<path style="fill:#202033;" d="M312.855,233.068L312.855,233.068c-0.247-0.512-0.556-0.989-0.83-1.483
	c-18.907,57.552-80.82,76.706-119.914,83.044l3.292,0.547c28.255,4.705,57.199,3.072,84.739-4.793
	c12.826-3.654,23.78-12.049,30.647-23.471C320.649,270.504,321.426,250.184,312.855,233.068z"/>
<path style="fill:#6B3713;" d="M336.82,204.451l12.658,12.658L509.061,21.221c1.88-2.286,2.904-5.146,2.904-8.103v-0.291
	c-0.018-0.53-0.071-1.059-0.159-1.58L336.82,204.451z"/>
<path style="fill:#DDDDDD;" d="M312.113,231.736c0.238,0.45,0.521,0.883,0.741,1.333l0,0c3.398,6.841,5.358,14.309,5.746,21.935
	l30.894-37.894l-12.658-12.658L312.113,231.736z"/>
<g>
</g>
<g>
</g>
<g>
</g>
<g>
</g>
<g>
</g>
<g>
</g>
<g>
</g>
<g>
</g>
<g>
</g>
<g>
</g>
<g>
</g>
<g>
</g>
<g>
</g>
<g>
</g>
<g>
</g>
</svg>
