<?xml version="1.0" ?><svg viewBox="0 0 128 128" xmlns="http://www.w3.org/2000/svg"><defs><style>.cls-1{fill:#a5e4f1;}.cls-2{fill:#c3edf5;}.cls-3{fill:#87dbec;}.cls-4{fill:#e1f6fa;}.cls-5{fill:#4d91bb;}.cls-6{fill:#7aaccc;}</style></defs><title/><g data-name="23 Flask" id="_23_Flask"><path class="cls-1" d="M104.74,99.89l-30-50.1V16H53.31V49.78l-30,50.1A8,8,0,0,0,30.12,112H97.88A8,8,0,0,0,104.74,99.89Z"/><path class="cls-2" d="M25.26,99.89,54,51.9a8.93,8.93,0,0,0,1.27-4.59V16h-2V49.78l-30,50.1A8,8,0,0,0,30.12,112h2A8,8,0,0,1,25.26,99.89Z"/><path class="cls-3" d="M104.74,99.89l-30-50.1V19.6c-4.21,0-.65-.67-20.39,4.4l14.55,1.11a2.8,2.8,0,0,1,2.59,2.79V45.15a8.59,8.59,0,0,0,1.22,4.42l28.82,48.06a8,8,0,0,1-6.86,12.11c-73.73,0-68.57.22-70.52-.5a7.87,7.87,0,0,0,6,2.75H97.88A8,8,0,0,0,104.74,99.89Z"/><path class="cls-2" d="M76,24H52c-5.32,0-5.33-8,0-8H76C81.32,16,81.33,24,76,24Z"/><path class="cls-4" d="M52.82,16.82c26.25,0,24.9-.3,26.38.8C77.57,15.44,77.78,16,52,16a4,4,0,0,0-2.38,7.2A4,4,0,0,1,52.82,16.82Z"/><path class="cls-1" d="M78.17,16.65a4,4,0,0,1-3.35,6.17c-25.93,0-24.79.24-26.17-.65C50.24,24.64,50.41,24,76,24A4,4,0,0,0,78.17,16.65Z"/><path class="cls-5" d="M30.12,106H97.88a2,2,0,0,0,1.72-3L87.34,82.55c-2.23-3.72-6.95-4.75-11-4.75-6.16,0-6.16,2-12.32,2s-6.16-2-12.32-2c-4.17,0-8.81,1.08-11,4.75L28.41,103A2,2,0,0,0,30.12,106Z"/><path class="cls-6" d="M69.31,106H53.68a7.81,7.81,0,1,1,15.63,0ZM48,82a6.12,6.12,0,1,0,6.12,6.12A6.12,6.12,0,0,0,48,82Zm29.62,8.49c-5,0-5,7.49,0,7.49S82.58,90.52,77.62,90.52Z"/><path class="cls-2" d="M63,64c0,5-7.49,5-7.49,0S63,59,63,64Z"/><path class="cls-2" d="M73.88,71.55c0,3.39-5.13,3.39-5.13,0S73.88,68.16,73.88,71.55Z"/></g></svg>