<svg height="512pt" viewBox="0 -62 512 512" width="512pt" xmlns="http://www.w3.org/2000/svg"><path d="m51 11v71h130.21875v-39.808594l-9.984375-12.824218v-18.367188zm0 0" fill="#ffefd5"/><path d="m224.246094 122.339844-12.492188-16.050782v-20.234374h-158.753906v90.09375l235.324219 68.820312zm0 0" fill="#ffefd5"/><path d="m502 172.277344v-68h-173.992188v19.367187l-9.988281 12.824219v32.695312zm0 0" fill="#ffc66c"/><path d="m52 258.089844v120.789062h273.71875l-32.105469-87.0625v-33.726562zm0 0" fill="#feda9b"/><path d="m250.277344 172.148438h-195.277344v82.941406h238.613281l-16.855469-32.261719zm0 0" fill="#feda9b"/><path d="m256.191406 172.148438-4.761718 4h39.847656l26.480468 50.679687 16.855469 32.261719h-2v33.726562l31.738281 86.0625h137.648438v-206.730468zm0 0" fill="#ffc66c"/><path d="m98 378.878906h-48v-54.730468c0-13.253907 10.746094-24 24-24s24 10.746093 24 24zm0 0" fill="#b3b6c3"/><path d="m414 378.878906h48v-54.730468c0-13.253907-10.746094-24-24-24s-24 10.746093-24 24zm0 0" fill="#b3b6c3"/><path d="m330.382812 378.878906h48v-54.730468c0-13.253907-10.746093-24-24-24-13.253906 0-24 10.746093-24 24zm0 0" fill="#b3b6c3"/><path d="m182 378.878906h-48v-54.730468c0-13.253907 10.746094-24 24-24s24 10.746093 24 24zm0 0" fill="#b3b6c3"/><path d="m266 378.878906h-48v-54.730468c0-13.253907 10.746094-24 24-24s24 10.746093 24 24zm0 0" fill="#d8d8e4"/><g fill="#ffc66c"><path d="m98 255.089844h-48v-24c0-13.253906 10.746094-24 24-24s24 10.746094 24 24zm0 0"/><path d="m182 255.089844h-48v-24c0-13.253906 10.746094-24 24-24s24 10.746094 24 24zm0 0"/><path d="m266 255.089844h-48v-24c0-13.253906 10.746094-24 24-24s24 10.746094 24 24zm0 0"/><path d="m98 172.148438h-48v-24c0-13.253907 10.746094-24 24-24s24 10.746093 24 24zm0 0"/><path d="m182 172.148438h-48v-24c0-13.253907 10.746094-24 24-24s24 10.746093 24 24zm0 0"/></g><path d="m414.382812 255.089844h48v-24c0-13.253906-10.746093-24-24-24-13.253906 0-24 10.746094-24 24zm0 0" fill="#898998"/><path d="m330.382812 255.089844h48v-24c0-13.253906-10.746093-24-24-24-13.253906 0-24 10.746094-24 24zm0 0" fill="#898998"/><path d="m50 58.894531c5.523438 0 10-4.480469 10-10v-5.789062c0-5.519531-4.476562-10-10-10s-10 4.480469-10 10v5.789062c0 5.523438 4.476562 10 10 10zm0 0"/><path d="m98 58.894531c5.523438 0 10-4.480469 10-10v-5.789062c0-5.519531-4.476562-10-10-10s-10 4.480469-10 10v5.789062c0 5.523438 4.476562 10 10 10zm0 0"/><path d="m146 58.894531c5.523438 0 10-4.480469 10-10v-5.789062c0-5.519531-4.476562-10-10-10s-10 4.480469-10 10v5.789062c0 5.523438 4.476562 10 10 10zm0 0"/><path d="m395.5 110.277344c2.628906 0 5.210938-1.066406 7.070312-2.929688 1.859376-1.867187 2.929688-4.4375 2.929688-7.070312 0-2.628906-1.070312-5.207032-2.929688-7.066406-1.859374-1.859376-4.441406-2.933594-7.070312-2.933594s-5.210938 1.070312-7.070312 2.933594c-1.859376 1.859374-2.929688 4.4375-2.929688 7.066406 0 2.632812 1.070312 5.203125 2.929688 7.070312 1.859374 1.863282 4.441406 2.929688 7.070312 2.929688zm0 0"/><path d="m502 90.277344h-63.617188c-5.523437 0-10 4.476562-10 10 0 5.523437 4.476563 10 10 10h53.617188v51.871094h-198.980469v-26.246094l7.878907-10.113282c1.367187-1.757812 2.109374-3.917968 2.109374-6.144531v-9.367187h51.992188c5.523438 0 10-4.476563 10-10 0-5.523438-4.476562-10-10-10h-61.992188c-5.523437 0-10 4.476562-10 10v15.933594l-7.878906 10.113281c-1.367187 1.757812-2.109375 3.917969-2.109375 6.144531v29.683594h-16.6875l-23.222656-44.441406c-.277344-.535157-.601563-1.039063-.972656-1.515626l-10.386719-13.339843v-20.796875c0-5.523438-4.476562-10-10-10h-20.53125v-29.867188c0-2.222656-.742188-4.386718-2.109375-6.144531l-7.875-10.113281v-15.933594c0-5.523438-4.476563-10-10-10h-161.234375c-5.523438 0-10 4.476562-10 10v72 .027344 296.851562c0 5.519532 4.476562 10 10 10h492c5.523438 0 10-4.480468 10-10v-278.601562c0-5.523438-4.476562-10-10-10zm-10 91.871094v62.941406h-19.617188v-14c0-18.746094-15.25-34-34-34-18.746093 0-34 15.253906-34 34v14h-16v-14c0-18.746094-15.25-34-34-34-18.746093 0-34 15.253906-34 34v14h-20.710937l-32.890625-62.941406zm-39.617188 62.941406h-28v-14c0-7.71875 6.28125-14 14-14s14 6.28125 14 14zm-84 0h-28v-14c0-7.71875 6.28125-14 14-14s14 6.28125 14 14zm-126.382812 45.058594c-18.746094 0-34 15.253906-34 34v44.730468h-16v-44.730468c0-18.746094-15.253906-34-34-34s-34 15.253906-34 34v44.730468h-16v-44.730468c0-18.746094-15.253906-34-34-34s-34 15.253906-34 34v44.730468h-20v-103.789062h263.613281v26.726562c0 1.179688.210938 2.355469.617188 3.460938l27.144531 73.601562h-35.375v-44.730468c0-18.746094-15.253906-34-34-34zm-154-128h-28v-14c0-7.71875 6.28125-14 14-14s14 6.28125 14 14zm156.21875 20 8.761719 16.773437c-3.445313-1.179687-7.136719-1.828125-10.980469-1.828125-18.746094 0-34 15.25-34 34v14h-16v-14c0-18.75-15.253906-34-34-34s-34 15.25-34 34v14h-16v-14c0-18.75-15.253906-34-34-34s-34 15.25-34 34v14h-20v-62.941406h224.21875zm-72.21875-20h-28v-14c0-7.71875 6.28125-14 14-14s14 6.28125 14 14zm84 82.941406h-28v-14c0-7.71875 6.28125-14 14-14s14 6.28125 14 14zm20-2.117188 1.105469 2.121094h-1.105469zm-104 2.117188h-28v-14c0-7.71875 6.28125-14 14-14s14 6.28125 14 14zm-84 0h-28v-14c0-7.71875 6.28125-14 14-14s14 6.28125 14 14zm115.863281-132.65625 11.941407 15.335937 17.964843 34.378907h-41.769531v-14c0-18.746094-15.253906-34-34-34s-34 15.253906-34 34v14h-16v-14c0-18.746094-15.253906-34-34-34s-34 15.253906-34 34v14h-20v-70.09375h181.75v14.234374c0 2.226563.742188 4.390626 2.113281 6.144532zm-42.628906-92.433594v9.367188c0 2.226562.742187 4.390624 2.109375 6.144531l7.875 10.117187v26.429688h-151.21875v-52.058594zm-101.234375 348.878906v-44.730468c0-7.71875 6.28125-14 14-14s14 6.28125 14 14v44.730468zm84 0v-44.730468c0-7.71875 6.28125-14 14-14s14 6.28125 14 14v44.730468zm84 0v-44.730468c0-7.71875 6.28125-14 14-14s14 6.28125 14 14v44.730468zm112.382812 0v-44.730468c0-7.71875 6.28125-14 14-14s14 6.28125 14 14v44.730468zm83.617188 0v-44.730468c0-7.71875 6.28125-14 14-14s14 6.28125 14 14v44.730468zm48 0v-44.730468c0-18.746094-15.253906-34-34-34s-34 15.253906-34 34v44.730468h-15.617188v-44.730468c0-18.746094-15.25-34-34-34-18.746093 0-34 15.253906-34 34v11.355468l-16.769531-45.472656v-24.941406h188.386719v103.789062zm0 0"/><path d="m472 139.613281v-6.675781c0-5.519531-4.476562-10-10-10s-10 4.480469-10 10v6.675781c0 5.523438 4.476562 10 10 10s10-4.476562 10-10zm0 0"/><path d="m404 139.613281c0 5.523438 4.476562 10 10 10s10-4.476562 10-10v-6.675781c0-5.519531-4.476562-10-10-10s-10 4.480469-10 10zm0 0"/><path d="m356 132.9375v6.675781c0 5.523438 4.476562 10 10 10s10-4.476562 10-10v-6.675781c0-5.519531-4.476562-10-10-10s-10 4.480469-10 10zm0 0"/><path d="m308 132.9375v6.675781c0 5.523438 4.476562 10 10 10s10-4.476562 10-10v-6.675781c0-5.519531-4.476562-10-10-10s-10 4.480469-10 10zm0 0"/></svg>